<svg xmlns="http://www.w3.org/2000/svg" xmlns:xlink="http://www.w3.org/1999/xlink" version="1.1" x="0px" y="0px" viewBox="0 0 100 125" style="enable-background:new 0 0 100 100;" xml:space="preserve"><style type="text/css">
	.st0{display:none;}
</style><g><g><path d="M50,23.07c-14.85,0-26.93,12.08-26.93,26.93S35.15,76.93,50,76.93S76.93,64.85,76.93,50S64.85,23.07,50,23.07z M50,75.32    c-13.96,0-25.32-11.36-25.32-25.32S36.04,24.68,50,24.68S75.32,36.04,75.32,50S63.96,75.32,50,75.32z"/><path d="M50,46.35c-2.01,0-3.65,1.64-3.65,3.65s1.64,3.65,3.65,3.65s3.65-1.64,3.65-3.65S52.01,46.35,50,46.35z M50,52.04    c-1.12,0-2.04-0.91-2.04-2.04s0.91-2.04,2.04-2.04s2.04,0.91,2.04,2.04S51.12,52.04,50,52.04z"/><path d="M24.68,21.03c0-2.01-1.64-3.65-3.65-3.65s-3.65,1.64-3.65,3.65s1.64,3.65,3.65,3.65S24.68,23.04,24.68,21.03z     M18.99,21.03c0-1.12,0.91-2.04,2.04-2.04c1.12,0,2.04,0.91,2.04,2.04c0,1.12-0.91,2.04-2.04,2.04    C19.91,23.07,18.99,22.16,18.99,21.03z"/><path d="M82.62,21.03c0-2.01-1.64-3.65-3.65-3.65s-3.65,1.64-3.65,3.65s1.64,3.65,3.65,3.65S82.62,23.04,82.62,21.03z     M78.97,23.07c-1.12,0-2.04-0.91-2.04-2.04c0-1.12,0.91-2.04,2.04-2.04s2.04,0.91,2.04,2.04C81.01,22.16,80.09,23.07,78.97,23.07z    "/><path d="M75.32,78.97c0,2.01,1.64,3.65,3.65,3.65s3.65-1.64,3.65-3.65s-1.64-3.65-3.65-3.65S75.32,76.96,75.32,78.97z     M81.01,78.97c0,1.12-0.91,2.04-2.04,2.04s-2.04-0.91-2.04-2.04s0.91-2.04,2.04-2.04S81.01,77.84,81.01,78.97z"/><path d="M21.03,75.32c-2.01,0-3.65,1.64-3.65,3.65s1.64,3.65,3.65,3.65s3.65-1.64,3.65-3.65S23.04,75.32,21.03,75.32z     M21.03,81.01c-1.12,0-2.04-0.91-2.04-2.04s0.91-2.04,2.04-2.04c1.12,0,2.04,0.91,2.04,2.04S22.16,81.01,21.03,81.01z"/><path d="M70.7,54.93c0-0.04-0.01-0.08-0.02-0.12c-0.01-0.06-0.03-0.11-0.06-0.16c-0.02-0.04-0.05-0.08-0.08-0.12    c-0.02-0.02-0.03-0.05-0.05-0.07c-4.91-5.23-10.84-4.03-13.8-2.94c0.09-0.41,0.14-0.83,0.16-1.26c0.67-1.09,4.92-7.41,12.61-5.11    c0.01,0,0.02,0,0.03,0.01c0,0,0.01,0,0.01,0c0,0,0.01,0,0.01,0c0.07,0.02,0.14,0.03,0.21,0.03c0.02,0,0.04-0.01,0.07-0.01    c0.02,0,0.04-0.01,0.07-0.01c0.03,0,0.06,0,0.09-0.01c0.03-0.01,0.05-0.03,0.07-0.04c0.06-0.02,0.11-0.05,0.16-0.08    c0.03-0.02,0.06-0.05,0.09-0.08c0.05-0.04,0.09-0.09,0.12-0.14c0.02-0.03,0.04-0.07,0.06-0.1c0.02-0.03,0.04-0.06,0.05-0.1    c0.01-0.03,0-0.06,0.01-0.09c0.01-0.04,0.01-0.07,0.01-0.11c0-0.07,0-0.14-0.02-0.21c0-0.01,0-0.03,0-0.04    c-1-3.54-2.92-6.77-5.57-9.37c-0.01-0.01-0.02-0.02-0.03-0.03c-0.03-0.03-0.05-0.05-0.08-0.08c-0.01-0.01-0.02-0.01-0.03-0.02    c-0.06-0.05-0.13-0.1-0.2-0.13c-0.03-0.01-0.06-0.02-0.08-0.03c-0.06-0.02-0.13-0.03-0.2-0.04c-0.04,0-0.08,0-0.13,0    c-0.03,0-0.06,0-0.09,0c-6.99,1.64-8.91,7.38-9.45,10.48c-0.31-0.29-0.65-0.55-1.01-0.77c-0.61-1.12-3.97-7.99,1.91-13.51    c0.02-0.02,0.02-0.04,0.04-0.05c0.04-0.04,0.06-0.08,0.09-0.13c0.03-0.05,0.05-0.1,0.07-0.15c0.01-0.02,0.02-0.03,0.03-0.06    c0.01-0.03,0-0.05,0-0.08c0.01-0.06,0.01-0.12,0.01-0.18c0-0.04-0.01-0.09-0.02-0.13c-0.01-0.06-0.03-0.11-0.06-0.16    c-0.02-0.04-0.05-0.08-0.07-0.12c-0.02-0.03-0.03-0.06-0.05-0.08c-0.02-0.02-0.04-0.03-0.06-0.04c-0.03-0.03-0.07-0.05-0.11-0.08    c-0.05-0.03-0.11-0.06-0.17-0.08c-0.02-0.01-0.03-0.02-0.05-0.02c-3.61-0.91-7.48-0.85-11.04,0.18c-0.02,0.01-0.03,0.02-0.05,0.02    c-0.07,0.03-0.13,0.06-0.19,0.1c-0.03,0.02-0.05,0.04-0.08,0.07c-0.05,0.04-0.09,0.09-0.12,0.15c-0.02,0.04-0.04,0.07-0.06,0.12    c-0.01,0.03-0.04,0.05-0.04,0.08c-2.07,6.86,1.93,11.4,4.34,13.41c-0.41,0.13-0.8,0.3-1.17,0.49c-1.32-0.03-8.89-0.56-10.73-8.4    c0-0.02-0.02-0.03-0.02-0.05c-0.02-0.05-0.04-0.1-0.07-0.14c-0.03-0.05-0.06-0.1-0.1-0.15c-0.01-0.01-0.01-0.03-0.03-0.04    c-0.01-0.01-0.03-0.02-0.05-0.03c-0.06-0.05-0.12-0.09-0.19-0.12c-0.02-0.01-0.05-0.02-0.07-0.03c-0.08-0.03-0.15-0.04-0.24-0.04    c-0.02,0-0.04,0-0.06,0c-0.05,0-0.09-0.01-0.14,0c-0.04,0.01-0.07,0.03-0.1,0.05c-0.02,0.01-0.03,0.02-0.05,0.02    c-0.08,0.04-0.15,0.09-0.22,0.15c-0.01,0.01-0.01,0.01-0.02,0.01c-2.61,2.7-4.47,6.03-5.37,9.64c-0.01,0.02,0,0.04,0,0.06    c-0.01,0.07-0.01,0.13-0.01,0.2c0,0.04,0.01,0.08,0.02,0.12c0.01,0.06,0.03,0.11,0.06,0.16c0.02,0.05,0.05,0.08,0.08,0.13    c0.02,0.02,0.03,0.05,0.05,0.07c2.82,3.01,5.98,3.89,8.72,3.89c2.03,0,3.82-0.48,5.07-0.95c-0.09,0.41-0.14,0.83-0.16,1.26    c-0.67,1.1-4.94,7.43-12.65,5.1c-0.02,0-0.03,0-0.05,0c-0.06-0.01-0.12-0.02-0.19-0.02c-0.05,0-0.1,0-0.14,0.01    c-0.02,0-0.04,0-0.07,0.01c-0.03,0.01-0.05,0.03-0.08,0.04c-0.05,0.02-0.1,0.05-0.15,0.08c-0.04,0.02-0.07,0.05-0.1,0.08    c-0.05,0.04-0.08,0.09-0.12,0.14c-0.02,0.03-0.04,0.07-0.06,0.11c-0.02,0.03-0.04,0.06-0.05,0.1c-0.01,0.03,0,0.06-0.01,0.09    c-0.01,0.04-0.01,0.07-0.01,0.11c0,0.07,0,0.14,0.02,0.21c0,0.01,0,0.03,0,0.04c1.01,3.58,2.97,6.85,5.66,9.47    c0.01,0.01,0.02,0.01,0.02,0.01c0.15,0.13,0.33,0.22,0.54,0.22c0.06,0,0.12-0.01,0.18-0.02c6.99-1.64,8.91-7.38,9.45-10.48    c0.31,0.29,0.65,0.55,1.01,0.77c0.61,1.12,3.97,7.99-1.91,13.51c-0.02,0.01-0.02,0.03-0.04,0.05c-0.04,0.04-0.07,0.09-0.1,0.14    c-0.03,0.05-0.05,0.09-0.07,0.15c-0.01,0.02-0.02,0.04-0.03,0.06c-0.01,0.03,0,0.05,0,0.08c-0.01,0.06-0.01,0.12-0.01,0.18    c0,0.04,0.01,0.09,0.02,0.13c0.01,0.06,0.03,0.11,0.06,0.16c0.02,0.04,0.05,0.08,0.07,0.12c0.02,0.03,0.03,0.06,0.05,0.08    c0.02,0.02,0.04,0.03,0.06,0.04c0.04,0.03,0.08,0.06,0.12,0.08c0.05,0.03,0.1,0.06,0.16,0.08c0.02,0.01,0.03,0.02,0.05,0.02    c1.69,0.43,3.44,0.64,5.2,0.64c1.98,0,3.94-0.28,5.82-0.82c0.11-0.03,0.21-0.08,0.3-0.15c0,0,0.01-0.01,0.01-0.01    c0.07-0.06,0.13-0.13,0.17-0.21c0.01-0.02,0.02-0.04,0.03-0.07c0.02-0.04,0.04-0.07,0.05-0.11c2.07-6.86-1.93-11.4-4.34-13.41    c0.41-0.13,0.8-0.3,1.17-0.49c1.3,0.04,8.9,0.57,10.73,8.4c0,0.02,0.02,0.04,0.02,0.06c0.02,0.05,0.03,0.09,0.06,0.14    c0.02,0.05,0.05,0.09,0.09,0.13c0.03,0.03,0.05,0.06,0.08,0.09c0.05,0.05,0.11,0.08,0.17,0.11c0.02,0.01,0.04,0.03,0.06,0.04    c0.09,0.04,0.19,0.06,0.3,0.06c0.06,0,0.12-0.01,0.18-0.02c0.04-0.01,0.07-0.04,0.11-0.05c0.03-0.01,0.05-0.02,0.07-0.03    c0.08-0.04,0.15-0.09,0.21-0.16c0.01-0.01,0.02-0.01,0.03-0.02c2.6-2.69,4.44-6.02,5.34-9.61c0.01-0.02,0-0.04,0-0.06    C70.7,55.06,70.7,55,70.7,54.93z M50,55.26c-2.9,0-5.26-2.36-5.26-5.26s2.36-5.26,5.26-5.26s5.26,2.36,5.26,5.26    S52.9,55.26,50,55.26z M64.03,36.16c2,2.03,3.54,4.45,4.5,7.09c-6.06-1.15-10.1,2.45-11.97,4.69c-0.13-0.41-0.3-0.8-0.49-1.17    C56.1,45.5,56.62,38.18,64.03,36.16z M45.03,30.93c2.72-0.71,5.61-0.83,8.39-0.35c-4.02,4.67-2.93,9.98-1.92,12.72    c-0.41-0.09-0.83-0.14-1.26-0.16C49.18,42.49,43.07,38.37,45.03,30.93z M31,44.77c0.74-2.72,2.07-5.26,3.9-7.43    c2.04,5.82,7.19,7.52,10.06,8.01c-0.29,0.31-0.55,0.65-0.77,1.01C43.13,46.92,36.43,50.14,31,44.77z M35.97,63.84    c-2-2.03-3.53-4.45-4.49-7.1c0.8,0.15,1.56,0.23,2.29,0.23c4.8,0,8.05-2.97,9.68-4.92c0.13,0.41,0.3,0.8,0.5,1.18    C43.9,54.5,43.38,61.82,35.97,63.84z M54.97,69.07c-2.72,0.71-5.61,0.84-8.39,0.35c4.02-4.67,2.93-9.98,1.92-12.72    c0.41,0.09,0.83,0.14,1.26,0.16C50.82,57.51,56.93,61.63,54.97,69.07z M55.04,54.65c0.29-0.31,0.55-0.65,0.77-1.01    c1.06-0.56,7.76-3.79,13.19,1.58c-0.74,2.72-2.07,5.26-3.9,7.43C63.06,56.85,57.91,55.15,55.04,54.65z"/><path d="M84.91,26.88c0.2-0.15,0.31-0.39,0.31-0.63V18.8c0-2.22-1.81-4.03-4.03-4.03h-5.87c-1.25,0-2.41,0.57-3.17,1.55    l-1.29,1.65c-0.46,0.59-1.16,0.93-1.9,0.93H31.03c-0.75,0-1.44-0.34-1.9-0.93l-1.29-1.65c-0.77-0.99-1.93-1.55-3.17-1.55H18.8    c-2.22,0-4.03,1.81-4.03,4.03v5.87c0,1.25,0.56,2.4,1.55,3.17l1.65,1.29c0.59,0.46,0.93,1.15,0.93,1.9v37.93    c0,0.75-0.34,1.44-0.93,1.9l-2.88,2.25c-0.2,0.15-0.31,0.39-0.31,0.63v7.45c0,2.22,1.81,4.03,4.03,4.03h5.87    c1.25,0,2.4-0.56,3.17-1.55l1.29-1.65c0.46-0.59,1.16-0.93,1.9-0.93h37.93c0.75,0,1.44,0.34,1.9,0.93l1.29,1.65    c0.77,0.98,1.92,1.55,3.17,1.55h5.88c2.22,0,4.03-1.81,4.03-4.03v-5.87c0-1.25-0.56-2.41-1.55-3.17l-1.65-1.29    c-0.59-0.46-0.93-1.16-0.93-1.9v-39.1L84.91,26.88z M81.03,72.14l1.65,1.29c0.59,0.46,0.93,1.16,0.93,1.9v5.87    c0,1.33-1.08,2.42-2.42,2.42h-5.88c-0.75,0-1.44-0.34-1.9-0.93l-1.29-1.65c-0.77-0.98-1.92-1.55-3.17-1.55H31.03    c-1.25,0-2.4,0.56-3.17,1.55l-1.29,1.65c-0.46,0.59-1.16,0.93-1.9,0.93H18.8c-1.33,0-2.42-1.08-2.42-2.42v-7.05l2.58-2.01    c0.98-0.77,1.55-1.92,1.55-3.17V31.03c0-1.25-0.56-2.4-1.55-3.17l-1.65-1.29c-0.59-0.46-0.93-1.15-0.93-1.9V18.8    c0-1.33,1.08-2.42,2.42-2.42h5.87c0.75,0,1.44,0.34,1.9,0.93l1.29,1.65c0.77,0.99,1.93,1.55,3.17,1.55h37.92    c1.25,0,2.41-0.57,3.17-1.55l1.29-1.65c0.46-0.59,1.16-0.93,1.9-0.93h5.87c1.33,0,2.42,1.08,2.42,2.42v7.05l-3.82,2.98    c-0.2,0.15-0.31,0.39-0.31,0.63v39.5C79.48,70.22,80.05,71.37,81.03,72.14z"/></g></g><text x="0" y="115" fill="#000000" font-size="5px" font-weight="bold" font-family="'Helvetica Neue', Helvetica, Arial-Unicode, Arial, Sans-serif">Created by AB Designs</text><text x="0" y="120" fill="#000000" font-size="5px" font-weight="bold" font-family="'Helvetica Neue', Helvetica, Arial-Unicode, Arial, Sans-serif">from the Noun Project</text></svg>